<svg xmlns="http://www.w3.org/2000/svg" width="64" height="32" viewBox="0 0 64 32" fill="none">
<path d="M42.0026 1.08115C40.2334 1.08115 39.0026 2.27373 39.0026 4.08115V13.0811C39.0026 13.3542 38.8276 13.9024 39.0026 14.0811C39.1678 14.25 39.7328 14.0712 40.0026 14.0811C40.2383 14.0886 40.8203 14.2351 41.0026 14.0811C41.2213 13.8949 41.0026 13.3816 41.0026 13.0811V8.08115H45.0026C45.2383 8.08115 45.83 8.24252 46.0026 8.08115C46.1994 7.89743 46.0026 7.31204 46.0026 7.08115C46.0026 6.80805 46.1848 7.25494 46.0026 7.08115C45.8203 6.90736 45.2553 7.08115 45.0026 7.08115H41.0026V4.08115C41.0026 3.21965 41.1617 3.08115 42.0026 3.08115H46.0026C46.2577 3.08115 46.8227 3.25494 47.0026 3.08115C47.1848 2.90736 47.0026 2.317 47.0026 2.08115C47.0026 1.82046 47.1848 1.25494 47.0026 1.08115C46.8203 0.907357 46.2553 1.08115 46.0026 1.08115H42.0026Z" fill="#020126"/>
<path d="M52.0022 13.0809C52.0022 13.3592 52.1947 13.8988 52.0022 14.0809C51.8097 14.2631 51.283 14.0809 51.0022 14.0809C50.7215 14.0809 50.1974 14.2631 50.0022 14.0809C49.8097 13.8988 50.0022 13.3592 50.0022 13.0809V1.08094C50.0022 0.80271 49.8017 0.263053 50.0022 0.0809395C50.2027 -0.101174 50.7241 0.0809395 51.0022 0.0809395C51.2963 0.0809395 51.8204 -0.101174 52.0022 0.0809395C52.1814 0.263053 52.0022 0.80271 52.0022 1.08094V13.0809Z" fill="#020126"/>
<path d="M64.0029 9C64.0029 9.97293 63.4434 11.2514 63.0029 12C62.5625 12.7486 62.758 12.5733 62.0029 13C61.2503 13.4267 59.9443 14 59.0029 14C58.0616 14 56.7555 13.4267 56.0029 13C55.2503 12.5757 55.4484 12.7486 55.0029 12C54.5574 11.2514 54.0029 9.97293 54.0029 9C54.0029 8.01487 54.5574 6.7486 55.0029 6C55.4484 5.2514 55.2503 5.4316 56.0029 5C56.7555 4.5684 58.0616 4 59.0029 4C59.9443 4 61.2503 4.5684 62.0029 5C62.7555 5.4316 62.5625 5.2514 63.0029 6C63.4434 6.7486 64.0029 8.01487 64.0029 9ZM62.0029 9C62.0029 8.33187 62.2798 7.49256 62.0029 7C61.7261 6.50744 61.4736 6.28042 61.0029 6C60.5323 5.71958 59.5818 6 59.0029 6C58.4265 6 57.4786 5.71958 57.0029 6C56.5247 6.28042 56.2798 6.50744 56.0029 7C55.7261 7.49256 56.0029 8.33187 56.0029 9C56.0029 9.64375 55.7261 10.5026 56.0029 11C56.2798 11.4999 56.5247 11.7196 57.0029 12C57.4812 12.2804 58.4265 12 59.0029 12C59.5793 12 60.5323 12.2804 61.0029 12C61.4736 11.7196 61.7261 11.4999 62.0029 11C62.2798 10.5026 62.0029 9.64618 62.0029 9Z" fill="#020126"/>
<path d="M34.0022 14.0007C33.9997 9.96373 34.0022 8.03767 34.0022 4.0007V3.0007C34.0022 1.70087 33.2985 0.988201 32.0022 1.0007C29.3099 1.0257 26.9641 2.13844 25.0022 4.0007C24.3092 4.65811 23.6379 5.28329 23.0022 6.0007C20.3523 8.99281 17.6621 12.0161 15.0022 15.0007C14.7878 15.2432 14.3039 14.9107 14.0022 15.0007C13.0799 15.2782 12.0022 15.0031 12.0022 14.0007C11.9997 9.92623 12.0047 6.07516 12.0022 2.0007C12.0022 1.44827 11.5182 1.0007 11.0022 1.0007C9.15749 1.0007 7.84445 0.933208 6.00222 1.0007C2.73905 1.12068 0.00470876 3.72363 0.00221589 7.0007C-0.00276986 10.0203 0.00221589 12.9811 0.00221589 16.0007C0.00221589 16.6681 0.321662 17.0007 1.00222 17.0007C2.60513 17.0007 4.89325 16.9932 7.00222 17.0007C8.57771 17.0057 10.0022 18.4209 10.0022 20.0007C10.0022 23.1828 9.99723 27.0411 10.0022 30.0007C10.0047 31.5005 11.4866 32.0007 13.0022 32.0007H15.0022C16.7672 32.0007 17.8729 31.2855 19.0022 30.0007C22.4374 26.0937 25.5396 21.8827 29.0022 18.0007C29.3512 17.6108 30.546 17.2682 31.0022 17.0007C31.6379 16.6307 32.0624 17.0007 33.0022 17.0007C33.2864 17.0007 34.0022 17.2832 34.0022 17.0007V14.0007Z" fill="#020126"/>
<path d="M36.002 19C37.2461 17.822 39.4911 17 42.002 17C44.5103 17 45.7553 17.8246 47.002 19C48.4224 20.3606 49.002 22.3458 49.002 25C49.002 27.6542 48.2461 28.8322 47.002 30C45.7553 31.1678 44.5128 32 42.002 32C39.4936 32 37.2486 31.1678 36.002 30C34.7553 28.8322 34.002 27.6567 34.002 25C34.002 22.3458 34.7578 20.178 36.002 19Z" fill="#020126"/>
</svg>